{
  "accessors": [
    {
      "bufferView": 2,
      "componentType": 5126,
      "count": 15237,
      "max": [
        1.4305230379104614,
        -8.433143615722656,
        7.34995698928833
      ],
      "min": [
        -1.9542670249938965,
        -12.811448097229004,
        -0.0010930000571534038
      ],
      "type": "VEC3"
    },
    {
      "bufferView": 2,
      "byteOffset": 182844,
      "componentType": 5126,
      "count": 15237,
      "max": [
        1.0,
        1.0,
        1.0
      ],
      "min": [
        -1.0,
        -1.0,
        -1.0
      ],
      "type": "VEC3"
    },
    {
      "bufferView": 3,
      "componentType": 5126,
      "count": 15237,
      "max": [
        1.0,
        1.0,
        1.0,
        1.0
      ],
      "min": [
        -1.0,
        -1.0,
        -1.0,
        1.0
      ],
      "type": "VEC4"
    },
    {
      "bufferView": 1,
      "componentType": 5126,
      "count": 15237,
      "max": [
        0.9989969730377197,
        1.0
      ],
      "min": [
        -0.0,
        0.0
      ],
      "type": "VEC2"
    },
    {
      "bufferView": 0,
      "componentType": 5125,
      "count": 26154,
      "type": "SCALAR"
    },
    {
      "bufferView": 2,
      "byteOffset": 365688,
      "componentType": 5126,
      "count": 14609,
      "max": [
        3.3208839893341064,
        -2.125401020050049,
        7.152571201324463
      ],
      "min": [
        -1.767909049987793,
        -7.205946922302246,
        -0.0007050000131130219
      ],
      "type": "VEC3"
    },
    {
      "bufferView": 2,
      "byteOffset": 540996,
      "componentType": 5126,
      "count": 14609,
      "max": [
        1.0,
        1.0,
        1.0
      ],
      "min": [
        -1.0,
        -1.0,
        -1.0
      ],
      "type": "VEC3"
    },
    {
      "bufferView": 3,
      "byteOffset": 243792,
      "componentType": 5126,
      "count": 14609,
      "max": [
        1.0,
        1.0,
        1.0,
        1.0
      ],
      "min": [
        -1.0,
        -1.0,
        -1.0,
        1.0
      ],
      "type": "VEC4"
    },
    {
      "bufferView": 1,
      "byteOffset": 121896,
      "componentType": 5126,
      "count": 14609,
      "max": [
        1.0,
        0.9980530142784119
      ],
      "min": [
        0.0,
        0.0
      ],
      "type": "VEC2"
    },
    {
      "bufferView": 0,
      "byteOffset": 104616,
      "componentType": 5125,
      "count": 25968,
      "type": "SCALAR"
    },
    {
      "bufferView": 2,
      "byteOffset": 716304,
      "componentType": 5126,
      "count": 28564,
      "max": [
        3.492016077041626,
        12.168959617614746,
        10.382145881652832
      ],
      "min": [
        -2.9552950859069824,
        0.9789419770240784,
        -0.0017920000245794654
      ],
      "type": "VEC3"
    },
    {
      "bufferView": 2,
      "byteOffset": 1059072,
      "componentType": 5126,
      "count": 28564,
      "max": [
        1.0,
        1.0,
        1.0
      ],
      "min": [
        -1.0,
        -1.0,
        -1.0
      ],
      "type": "VEC3"
    },
    {
      "bufferView": 3,
      "byteOffset": 477536,
      "componentType": 5126,
      "count": 28564,
      "max": [
        1.0,
        1.0,
        1.0,
        1.0
      ],
      "min": [
        -1.0,
        -1.0,
        -1.0,
        1.0
      ],
      "type": "VEC4"
    },
    {
      "bufferView": 1,
      "byteOffset": 238768,
      "componentType": 5126,
      "count": 28564,
      "max": [
        1.0,
        0.999809980392456
      ],
      "min": [
        0.0,
        0.0
      ],
      "type": "VEC2"
    },
    {
      "bufferView": 0,
      "byteOffset": 208488,
      "componentType": 5125,
      "count": 44874,
      "type": "SCALAR"
    }
  ],
  "asset": {
    "extras": {
      "author": "Ajay Gawde (https://sketchfab.com/aagawde)",
      "license": "CC-BY-4.0 (http://creativecommons.org/licenses/by/4.0/)",
      "source": "https://sketchfab.com/3d-models/medieval-houses-3-pack-38443304774c481e9498b3e810389e91",
      "title": "Medieval Houses (3 Pack)"
    },
    "generator": "Sketchfab-15.97.0",
    "version": "2.0"
  },
  "bufferViews": [
    {
      "buffer": 0,
      "byteLength": 387984,
      "name": "floatBufferViews",
      "target": 34963
    },
    {
      "buffer": 0,
      "byteLength": 467280,
      "byteOffset": 387984,
      "byteStride": 8,
      "name": "floatBufferViews",
      "target": 34962
    },
    {
      "buffer": 0,
      "byteLength": 1401840,
      "byteOffset": 855264,
      "byteStride": 12,
      "name": "floatBufferViews",
      "target": 34962
    },
    {
      "buffer": 0,
      "byteLength": 934560,
      "byteOffset": 2257104,
      "byteStride": 16,
      "name": "floatBufferViews",
      "target": 34962
    }
  ],
  "buffers": [
    {
      "byteLength": 3191664,
      "uri": "scene.bin"
    }
  ],
  "images": [
    {
      "uri": "textures/House_01_baseColor.png"
    },
    {
      "uri": "textures/House_01_metallicRoughness.png"
    },
    {
      "uri": "textures/House_01_emissive.png"
    },
    {
      "uri": "textures/House_01_normal.png"
    },
    {
      "uri": "textures/House_03_baseColor.png"
    },
    {
      "uri": "textures/House_03_metallicRoughness.png"
    },
    {
      "uri": "textures/House_03_emissive.png"
    },
    {
      "uri": "textures/House_03_normal.png"
    },
    {
      "uri": "textures/House__02_baseColor.png"
    },
    {
      "uri": "textures/House__02_metallicRoughness.png"
    },
    {
      "uri": "textures/House__02_emissive.png"
    },
    {
      "uri": "textures/House__02_normal.png"
    }
  ],
  "materials": [
    {
      "doubleSided": true,
      "emissiveFactor": [
        1.0,
        1.0,
        1.0
      ],
      "emissiveTexture": {
        "index": 2
      },
      "name": "House_01",
      "normalTexture": {
        "index": 3
      },
      "pbrMetallicRoughness": {
        "baseColorTexture": {
          "index": 0
        },
        "metallicRoughnessTexture": {
          "index": 1
        },
        "roughnessFactor": 0.6
      }
    },
    {
      "doubleSided": true,
      "emissiveFactor": [
        1.0,
        1.0,
        1.0
      ],
      "emissiveTexture": {
        "index": 6
      },
      "name": "House_03",
      "normalTexture": {
        "index": 7
      },
      "pbrMetallicRoughness": {
        "baseColorTexture": {
          "index": 4
        },
        "metallicRoughnessTexture": {
          "index": 5
        },
        "roughnessFactor": 0.6
      }
    },
    {
      "doubleSided": true,
      "emissiveFactor": [
        1.0,
        1.0,
        1.0
      ],
      "emissiveTexture": {
        "index": 10
      },
      "name": "House__02",
      "normalTexture": {
        "index": 11
      },
      "pbrMetallicRoughness": {
        "baseColorTexture": {
          "index": 8
        },
        "metallicRoughnessTexture": {
          "index": 9
        },
        "roughnessFactor": 0.6
      }
    }
  ],
  "meshes": [
    {
      "name": "Object_0",
      "primitives": [
        {
          "attributes": {
            "NORMAL": 1,
            "POSITION": 0,
            "TANGENT": 2,
            "TEXCOORD_0": 3
          },
          "indices": 4,
          "material": 0,
          "mode": 4
        }
      ]
    },
    {
      "name": "Object_1",
      "primitives": [
        {
          "attributes": {
            "NORMAL": 6,
            "POSITION": 5,
            "TANGENT": 7,
            "TEXCOORD_0": 8
          },
          "indices": 9,
          "material": 1,
          "mode": 4
        }
      ]
    },
    {
      "name": "Object_2",
      "primitives": [
        {
          "attributes": {
            "NORMAL": 11,
            "POSITION": 10,
            "TANGENT": 12,
            "TEXCOORD_0": 13
          },
          "indices": 14,
          "material": 2,
          "mode": 4
        }
      ]
    }
  ],
  "nodes": [
    {
      "children": [
        1
      ],
      "matrix": [
        1.0,
        0.0,
        0.0,
        0.0,
        0.0,
        2.220446049250313e-16,
        -1.0,
        0.0,
        0.0,
        1.0,
        2.220446049250313e-16,
        0.0,
        0.0,
        0.0,
        0.0,
        1.0
      ],
      "name": "Sketchfab_model"
    },
    {
      "children": [
        2,
        3,
        4
      ],
      "name": "House_Models.obj.cleaner.materialmerger.gles"
    },
    {
      "mesh": 0,
      "name": "Object_2"
    },
    {
      "mesh": 1,
      "name": "Object_3"
    },
    {
      "mesh": 2,
      "name": "Object_4"
    }
  ],
  "samplers": [
    {
      "magFilter": 9729,
      "minFilter": 9987,
      "wrapS": 10497,
      "wrapT": 10497
    }
  ],
  "scene": 0,
  "scenes": [
    {
      "name": "Sketchfab_Scene",
      "nodes": [
        0
      ]
    }
  ],
  "textures": [
    {
      "sampler": 0,
      "source": 0
    },
    {
      "sampler": 0,
      "source": 1
    },
    {
      "sampler": 0,
      "source": 2
    },
    {
      "sampler": 0,
      "source": 3
    },
    {
      "sampler": 0,
      "source": 4
    },
    {
      "sampler": 0,
      "source": 5
    },
    {
      "sampler": 0,
      "source": 6
    },
    {
      "sampler": 0,
      "source": 7
    },
    {
      "sampler": 0,
      "source": 8
    },
    {
      "sampler": 0,
      "source": 9
    },
    {
      "sampler": 0,
      "source": 10
    },
    {
      "sampler": 0,
      "source": 11
    }
  ]
}
